M48
; DRILL file {KiCad (5.1.9)-1} date 12/09/21 11:09:37
; FORMAT={-:-/ absolute / metric / decimal}
; #@! TF.CreationDate,2021-12-09T11:09:37-03:00
; #@! TF.GenerationSoftware,Kicad,Pcbnew,(5.1.9)-1
; #@! TF.FileFunction,Plated,1,2,PTH
FMAT,2
METRIC
T1C1.000
T2C1.100
T3C1.200
T4C1.300
%
G90
G05
T1
X93.805Y-109.815
X93.805Y-112.355
X93.805Y-114.895
X93.805Y-117.435
X93.805Y-119.975
X93.805Y-122.515
X93.805Y-125.055
X93.805Y-127.595
X96.345Y-109.815
X98.885Y-109.815
X106.503Y-109.815
X106.503Y-112.355
X106.503Y-114.895
X106.503Y-117.435
X106.503Y-119.975
X106.503Y-122.515
X106.503Y-125.055
X106.503Y-127.595
T2
X101.981Y-117.983
X101.981Y-128.143
T3
X97.79Y-137.922
X102.79Y-137.922
T4
X97.79Y-151.892
X102.87Y-151.892
T0
M30
