%TF.GenerationSoftware,KiCad,Pcbnew,(5.1.9)-1*%
%TF.CreationDate,2021-12-09T11:09:14-03:00*%
%TF.ProjectId,HV_stepstick_adapter,48565f73-7465-4707-9374-69636b5f6164,rev?*%
%TF.SameCoordinates,Original*%
%TF.FileFunction,Copper,L1,Top*%
%TF.FilePolarity,Positive*%
%FSLAX46Y46*%
G04 Gerber Fmt 4.6, Leading zero omitted, Abs format (unit mm)*
G04 Created by KiCad (PCBNEW (5.1.9)-1) date 2021-12-09 11:09:14*
%MOMM*%
%LPD*%
G01*
G04 APERTURE LIST*
%TA.AperFunction,ComponentPad*%
%ADD10R,2.400000X2.400000*%
%TD*%
%TA.AperFunction,ComponentPad*%
%ADD11C,2.400000*%
%TD*%
%TA.AperFunction,ComponentPad*%
%ADD12R,2.600000X2.600000*%
%TD*%
%TA.AperFunction,ComponentPad*%
%ADD13C,2.600000*%
%TD*%
%TA.AperFunction,ComponentPad*%
%ADD14R,1.700000X1.700000*%
%TD*%
%TA.AperFunction,ComponentPad*%
%ADD15O,1.700000X1.700000*%
%TD*%
%TA.AperFunction,ComponentPad*%
%ADD16C,1.700000*%
%TD*%
%TA.AperFunction,ComponentPad*%
%ADD17R,2.200000X2.200000*%
%TD*%
%TA.AperFunction,ComponentPad*%
%ADD18O,2.200000X2.200000*%
%TD*%
%TA.AperFunction,Conductor*%
%ADD19C,1.270000*%
%TD*%
%TA.AperFunction,Conductor*%
%ADD20C,1.905000*%
%TD*%
%TA.AperFunction,Conductor*%
%ADD21C,0.254000*%
%TD*%
%TA.AperFunction,Conductor*%
%ADD22C,0.100000*%
%TD*%
G04 APERTURE END LIST*
D10*
%TO.P,C1,1*%
%TO.N,VMOT*%
X97790000Y-137922000D03*
D11*
%TO.P,C1,2*%
%TO.N,GND*%
X102790000Y-137922000D03*
%TD*%
D12*
%TO.P,J1,1*%
%TO.N,VMOT*%
X97790000Y-151892000D03*
D13*
%TO.P,J1,2*%
%TO.N,GND*%
X102870000Y-151892000D03*
%TD*%
D14*
%TO.P,J2,1*%
%TO.N,DIR*%
X93805000Y-127594999D03*
D15*
%TO.P,J2,2*%
%TO.N,STEP*%
X93805000Y-125054999D03*
%TO.P,J2,3*%
%TO.N,~SLEEP*%
X93805000Y-122514999D03*
%TO.P,J2,4*%
%TO.N,~RESET*%
X93805000Y-119974999D03*
%TO.P,J2,5*%
%TO.N,MS3*%
X93805000Y-117434999D03*
%TO.P,J2,6*%
%TO.N,MS2*%
X93805000Y-114894999D03*
%TO.P,J2,7*%
%TO.N,MS1*%
X93805000Y-112354999D03*
%TO.P,J2,8*%
%TO.N,~ENABLE*%
X93805000Y-109814999D03*
%TD*%
%TO.P,J3,8*%
%TO.N,VMOT*%
X106502999Y-109814999D03*
%TO.P,J3,7*%
%TO.N,GND*%
X106502999Y-112354999D03*
%TO.P,J3,6*%
%TO.N,2B*%
X106502999Y-114894999D03*
%TO.P,J3,5*%
%TO.N,2A*%
X106502999Y-117434999D03*
%TO.P,J3,4*%
%TO.N,1A*%
X106502999Y-119974999D03*
%TO.P,J3,3*%
%TO.N,1B*%
X106502999Y-122514999D03*
%TO.P,J3,2*%
%TO.N,VDD*%
X106502999Y-125054999D03*
D14*
%TO.P,J3,1*%
%TO.N,GND*%
X106502999Y-127594999D03*
%TD*%
D16*
%TO.P,J4,1*%
%TO.N,Net-(J4-Pad1)*%
X96345000Y-109814999D03*
D15*
%TO.P,J4,2*%
%TO.N,Net-(J4-Pad2)*%
X98885000Y-109814999D03*
%TD*%
D17*
%TO.P,D1,1*%
%TO.N,VMOT*%
X101981000Y-128143000D03*
D18*
%TO.P,D1,2*%
%TO.N,VDD*%
X101981000Y-117983000D03*
%TD*%
D19*
%TO.N,VDD*%
X101981000Y-120533000D02*
X101981000Y-117983000D01*
X106502999Y-125054999D02*
X101981000Y-120533000D01*
D20*
%TO.N,VMOT*%
X97790000Y-151892000D02*
X97790000Y-137922000D01*
X106502999Y-109814999D02*
X104185001Y-109814999D01*
X97790000Y-116210000D02*
X97790000Y-118527998D01*
X104185001Y-109814999D02*
X97790000Y-116210000D01*
D19*
X98552000Y-128143000D02*
X97790000Y-128905000D01*
X101981000Y-128143000D02*
X98552000Y-128143000D01*
D20*
X97790000Y-128905000D02*
X97790000Y-137922000D01*
X97790000Y-118527998D02*
X97790000Y-128905000D01*
%TD*%
D21*
%TO.N,GND*%
X107147000Y-108647186D02*
X107015776Y-108577045D01*
X106764411Y-108500794D01*
X106568507Y-108481499D01*
X104250498Y-108481499D01*
X104185000Y-108475048D01*
X104119503Y-108481499D01*
X104119493Y-108481499D01*
X103923589Y-108500794D01*
X103672224Y-108577045D01*
X103570709Y-108631306D01*
X103440563Y-108700870D01*
X103344638Y-108779594D01*
X103237512Y-108867510D01*
X103195751Y-108918396D01*
X96893397Y-115220750D01*
X96842511Y-115262511D01*
X96800752Y-115313395D01*
X96675871Y-115465563D01*
X96669172Y-115478096D01*
X96552046Y-115697224D01*
X96475795Y-115948589D01*
X96456500Y-116144493D01*
X96456500Y-116144503D01*
X96450049Y-116210000D01*
X96456500Y-116275498D01*
X96456501Y-118462481D01*
X96456500Y-118462491D01*
X96456501Y-128839483D01*
X96456500Y-128839493D01*
X96456501Y-136364353D01*
X96443492Y-136368299D01*
X96377304Y-136403678D01*
X96319289Y-136451289D01*
X96271678Y-136509304D01*
X96236299Y-136575492D01*
X96214513Y-136647311D01*
X96207157Y-136722000D01*
X96207157Y-139122000D01*
X96214513Y-139196689D01*
X96236299Y-139268508D01*
X96271678Y-139334696D01*
X96319289Y-139392711D01*
X96377304Y-139440322D01*
X96443492Y-139475701D01*
X96456501Y-139479647D01*
X96456500Y-150212456D01*
X96415311Y-150216513D01*
X96343492Y-150238299D01*
X96277304Y-150273678D01*
X96219289Y-150321289D01*
X96171678Y-150379304D01*
X96136299Y-150445492D01*
X96114513Y-150517311D01*
X96107157Y-150592000D01*
X96107157Y-153192000D01*
X96114513Y-153266689D01*
X96136299Y-153338508D01*
X96171678Y-153404696D01*
X96219289Y-153462711D01*
X96277304Y-153510322D01*
X96343492Y-153545701D01*
X96415311Y-153567487D01*
X96490000Y-153574843D01*
X99090000Y-153574843D01*
X99164689Y-153567487D01*
X99236508Y-153545701D01*
X99302696Y-153510322D01*
X99360711Y-153462711D01*
X99408322Y-153404696D01*
X99443701Y-153338508D01*
X99465487Y-153266689D01*
X99467995Y-153241224D01*
X101700381Y-153241224D01*
X101832317Y-153536312D01*
X102173045Y-153707159D01*
X102540557Y-153808250D01*
X102920729Y-153835701D01*
X103298951Y-153788457D01*
X103660690Y-153668333D01*
X103907683Y-153536312D01*
X104039619Y-153241224D01*
X102870000Y-152071605D01*
X101700381Y-153241224D01*
X99467995Y-153241224D01*
X99472843Y-153192000D01*
X99472843Y-151942729D01*
X100926299Y-151942729D01*
X100973543Y-152320951D01*
X101093667Y-152682690D01*
X101225688Y-152929683D01*
X101520776Y-153061619D01*
X102690395Y-151892000D01*
X103049605Y-151892000D01*
X104219224Y-153061619D01*
X104514312Y-152929683D01*
X104685159Y-152588955D01*
X104786250Y-152221443D01*
X104813701Y-151841271D01*
X104766457Y-151463049D01*
X104646333Y-151101310D01*
X104514312Y-150854317D01*
X104219224Y-150722381D01*
X103049605Y-151892000D01*
X102690395Y-151892000D01*
X101520776Y-150722381D01*
X101225688Y-150854317D01*
X101054841Y-151195045D01*
X100953750Y-151562557D01*
X100926299Y-151942729D01*
X99472843Y-151942729D01*
X99472843Y-150592000D01*
X99467996Y-150542776D01*
X101700381Y-150542776D01*
X102870000Y-151712395D01*
X104039619Y-150542776D01*
X103907683Y-150247688D01*
X103566955Y-150076841D01*
X103199443Y-149975750D01*
X102819271Y-149948299D01*
X102441049Y-149995543D01*
X102079310Y-150115667D01*
X101832317Y-150247688D01*
X101700381Y-150542776D01*
X99467996Y-150542776D01*
X99465487Y-150517311D01*
X99443701Y-150445492D01*
X99408322Y-150379304D01*
X99360711Y-150321289D01*
X99302696Y-150273678D01*
X99236508Y-150238299D01*
X99164689Y-150216513D01*
X99123500Y-150212456D01*
X99123500Y-139479647D01*
X99136508Y-139475701D01*
X99202696Y-139440322D01*
X99260711Y-139392711D01*
X99308322Y-139334696D01*
X99343701Y-139268508D01*
X99364488Y-139199980D01*
X101691626Y-139199980D01*
X101811514Y-139484836D01*
X102135210Y-139645699D01*
X102484069Y-139740322D01*
X102844684Y-139765067D01*
X103203198Y-139718985D01*
X103545833Y-139603846D01*
X103768486Y-139484836D01*
X103888374Y-139199980D01*
X102790000Y-138101605D01*
X101691626Y-139199980D01*
X99364488Y-139199980D01*
X99365487Y-139196689D01*
X99372843Y-139122000D01*
X99372843Y-137976684D01*
X100946933Y-137976684D01*
X100993015Y-138335198D01*
X101108154Y-138677833D01*
X101227164Y-138900486D01*
X101512020Y-139020374D01*
X102610395Y-137922000D01*
X102969605Y-137922000D01*
X104067980Y-139020374D01*
X104352836Y-138900486D01*
X104513699Y-138576790D01*
X104608322Y-138227931D01*
X104633067Y-137867316D01*
X104586985Y-137508802D01*
X104471846Y-137166167D01*
X104352836Y-136943514D01*
X104067980Y-136823626D01*
X102969605Y-137922000D01*
X102610395Y-137922000D01*
X101512020Y-136823626D01*
X101227164Y-136943514D01*
X101066301Y-137267210D01*
X100971678Y-137616069D01*
X100946933Y-137976684D01*
X99372843Y-137976684D01*
X99372843Y-136722000D01*
X99365487Y-136647311D01*
X99364489Y-136644020D01*
X101691626Y-136644020D01*
X102790000Y-137742395D01*
X103888374Y-136644020D01*
X103768486Y-136359164D01*
X103444790Y-136198301D01*
X103095931Y-136103678D01*
X102735316Y-136078933D01*
X102376802Y-136125015D01*
X102034167Y-136240154D01*
X101811514Y-136359164D01*
X101691626Y-136644020D01*
X99364489Y-136644020D01*
X99343701Y-136575492D01*
X99308322Y-136509304D01*
X99260711Y-136451289D01*
X99202696Y-136403678D01*
X99136508Y-136368299D01*
X99123500Y-136364353D01*
X99123500Y-129159000D01*
X100498157Y-129159000D01*
X100498157Y-129243000D01*
X100505513Y-129317689D01*
X100527299Y-129389508D01*
X100562678Y-129455696D01*
X100610289Y-129513711D01*
X100668304Y-129561322D01*
X100734492Y-129596701D01*
X100806311Y-129618487D01*
X100881000Y-129625843D01*
X103081000Y-129625843D01*
X103155689Y-129618487D01*
X103227508Y-129596701D01*
X103293696Y-129561322D01*
X103351711Y-129513711D01*
X103399322Y-129455696D01*
X103434701Y-129389508D01*
X103456487Y-129317689D01*
X103463843Y-129243000D01*
X103463843Y-128444999D01*
X105014927Y-128444999D01*
X105027187Y-128569481D01*
X105063497Y-128689179D01*
X105122462Y-128799493D01*
X105201814Y-128896184D01*
X105298505Y-128975536D01*
X105408819Y-129034501D01*
X105528517Y-129070811D01*
X105652999Y-129083071D01*
X106217249Y-129079999D01*
X106375999Y-128921249D01*
X106375999Y-127721999D01*
X105176749Y-127721999D01*
X105017999Y-127880749D01*
X105014927Y-128444999D01*
X103463843Y-128444999D01*
X103463843Y-127043000D01*
X103456487Y-126968311D01*
X103434701Y-126896492D01*
X103399322Y-126830304D01*
X103351711Y-126772289D01*
X103293696Y-126724678D01*
X103227508Y-126689299D01*
X103155689Y-126667513D01*
X103081000Y-126660157D01*
X100881000Y-126660157D01*
X100806311Y-126667513D01*
X100734492Y-126689299D01*
X100668304Y-126724678D01*
X100610289Y-126772289D01*
X100562678Y-126830304D01*
X100527299Y-126896492D01*
X100505513Y-126968311D01*
X100498157Y-127043000D01*
X100498157Y-127127000D01*
X99123500Y-127127000D01*
X99123500Y-116762353D01*
X104737354Y-111148499D01*
X105640651Y-111148499D01*
X105621644Y-111159821D01*
X105405411Y-111354730D01*
X105231358Y-111588079D01*
X105106174Y-111850900D01*
X105061523Y-111998109D01*
X105182844Y-112227999D01*
X106375999Y-112227999D01*
X106375999Y-112207999D01*
X106629999Y-112207999D01*
X106629999Y-112227999D01*
X107147000Y-112227999D01*
X107147000Y-112481999D01*
X106629999Y-112481999D01*
X106629999Y-112501999D01*
X106375999Y-112501999D01*
X106375999Y-112481999D01*
X105182844Y-112481999D01*
X105061523Y-112711889D01*
X105106174Y-112859098D01*
X105231358Y-113121919D01*
X105405411Y-113355268D01*
X105621644Y-113550177D01*
X105871747Y-113699156D01*
X106034167Y-113756771D01*
X105919902Y-113804101D01*
X105718282Y-113938819D01*
X105546819Y-114110282D01*
X105412101Y-114311902D01*
X105319306Y-114535930D01*
X105271999Y-114773756D01*
X105271999Y-115016242D01*
X105319306Y-115254068D01*
X105412101Y-115478096D01*
X105546819Y-115679716D01*
X105718282Y-115851179D01*
X105919902Y-115985897D01*
X106143930Y-116078692D01*
X106381756Y-116125999D01*
X106624242Y-116125999D01*
X106862068Y-116078692D01*
X107086096Y-115985897D01*
X107147000Y-115945202D01*
X107147000Y-116384796D01*
X107086096Y-116344101D01*
X106862068Y-116251306D01*
X106624242Y-116203999D01*
X106381756Y-116203999D01*
X106143930Y-116251306D01*
X105919902Y-116344101D01*
X105718282Y-116478819D01*
X105546819Y-116650282D01*
X105412101Y-116851902D01*
X105319306Y-117075930D01*
X105271999Y-117313756D01*
X105271999Y-117556242D01*
X105319306Y-117794068D01*
X105412101Y-118018096D01*
X105546819Y-118219716D01*
X105718282Y-118391179D01*
X105919902Y-118525897D01*
X106143930Y-118618692D01*
X106381756Y-118665999D01*
X106624242Y-118665999D01*
X106862068Y-118618692D01*
X107086096Y-118525897D01*
X107147000Y-118485202D01*
X107147000Y-118924796D01*
X107086096Y-118884101D01*
X106862068Y-118791306D01*
X106624242Y-118743999D01*
X106381756Y-118743999D01*
X106143930Y-118791306D01*
X105919902Y-118884101D01*
X105718282Y-119018819D01*
X105546819Y-119190282D01*
X105412101Y-119391902D01*
X105319306Y-119615930D01*
X105271999Y-119853756D01*
X105271999Y-120096242D01*
X105319306Y-120334068D01*
X105412101Y-120558096D01*
X105546819Y-120759716D01*
X105718282Y-120931179D01*
X105919902Y-121065897D01*
X106143930Y-121158692D01*
X106381756Y-121205999D01*
X106624242Y-121205999D01*
X106862068Y-121158692D01*
X107086096Y-121065897D01*
X107147000Y-121025202D01*
X107147000Y-121464796D01*
X107086096Y-121424101D01*
X106862068Y-121331306D01*
X106624242Y-121283999D01*
X106381756Y-121283999D01*
X106143930Y-121331306D01*
X105919902Y-121424101D01*
X105718282Y-121558819D01*
X105546819Y-121730282D01*
X105412101Y-121931902D01*
X105319306Y-122155930D01*
X105273094Y-122388253D01*
X102997000Y-120112160D01*
X102997000Y-119061451D01*
X103131368Y-118927083D01*
X103293445Y-118684517D01*
X103405086Y-118414992D01*
X103462000Y-118128866D01*
X103462000Y-117837134D01*
X103405086Y-117551008D01*
X103293445Y-117281483D01*
X103131368Y-117038917D01*
X102925083Y-116832632D01*
X102682517Y-116670555D01*
X102412992Y-116558914D01*
X102126866Y-116502000D01*
X101835134Y-116502000D01*
X101549008Y-116558914D01*
X101279483Y-116670555D01*
X101036917Y-116832632D01*
X100830632Y-117038917D01*
X100668555Y-117281483D01*
X100556914Y-117551008D01*
X100500000Y-117837134D01*
X100500000Y-118128866D01*
X100556914Y-118414992D01*
X100668555Y-118684517D01*
X100830632Y-118927083D01*
X100965001Y-119061452D01*
X100965000Y-120483098D01*
X100960085Y-120533000D01*
X100965000Y-120582901D01*
X100979702Y-120732170D01*
X101037798Y-120923686D01*
X101132140Y-121100190D01*
X101259104Y-121254896D01*
X101297872Y-121286712D01*
X105293005Y-125281846D01*
X105319306Y-125414068D01*
X105412101Y-125638096D01*
X105546819Y-125839716D01*
X105718282Y-126011179D01*
X105863293Y-126108072D01*
X105652999Y-126106927D01*
X105528517Y-126119187D01*
X105408819Y-126155497D01*
X105298505Y-126214462D01*
X105201814Y-126293814D01*
X105122462Y-126390505D01*
X105063497Y-126500819D01*
X105027187Y-126620517D01*
X105014927Y-126744999D01*
X105017999Y-127309249D01*
X105176749Y-127467999D01*
X106375999Y-127467999D01*
X106375999Y-127447999D01*
X106629999Y-127447999D01*
X106629999Y-127467999D01*
X107147000Y-127467999D01*
X107147000Y-127721999D01*
X106629999Y-127721999D01*
X106629999Y-128921249D01*
X106788749Y-129079999D01*
X107147000Y-129081949D01*
X107147001Y-156586000D01*
X93211000Y-156586000D01*
X93211000Y-128827842D01*
X94655000Y-128827842D01*
X94729689Y-128820486D01*
X94801508Y-128798700D01*
X94867696Y-128763321D01*
X94925711Y-128715710D01*
X94973322Y-128657695D01*
X95008701Y-128591507D01*
X95030487Y-128519688D01*
X95037843Y-128444999D01*
X95037843Y-126744999D01*
X95030487Y-126670310D01*
X95008701Y-126598491D01*
X94973322Y-126532303D01*
X94925711Y-126474288D01*
X94867696Y-126426677D01*
X94801508Y-126391298D01*
X94729689Y-126369512D01*
X94655000Y-126362156D01*
X93211000Y-126362156D01*
X93211000Y-126138612D01*
X93221903Y-126145897D01*
X93445931Y-126238692D01*
X93683757Y-126285999D01*
X93926243Y-126285999D01*
X94164069Y-126238692D01*
X94388097Y-126145897D01*
X94589717Y-126011179D01*
X94761180Y-125839716D01*
X94895898Y-125638096D01*
X94988693Y-125414068D01*
X95036000Y-125176242D01*
X95036000Y-124933756D01*
X94988693Y-124695930D01*
X94895898Y-124471902D01*
X94761180Y-124270282D01*
X94589717Y-124098819D01*
X94388097Y-123964101D01*
X94164069Y-123871306D01*
X93926243Y-123823999D01*
X93683757Y-123823999D01*
X93445931Y-123871306D01*
X93221903Y-123964101D01*
X93211000Y-123971386D01*
X93211000Y-123598612D01*
X93221903Y-123605897D01*
X93445931Y-123698692D01*
X93683757Y-123745999D01*
X93926243Y-123745999D01*
X94164069Y-123698692D01*
X94388097Y-123605897D01*
X94589717Y-123471179D01*
X94761180Y-123299716D01*
X94895898Y-123098096D01*
X94988693Y-122874068D01*
X95036000Y-122636242D01*
X95036000Y-122393756D01*
X94988693Y-122155930D01*
X94895898Y-121931902D01*
X94761180Y-121730282D01*
X94589717Y-121558819D01*
X94388097Y-121424101D01*
X94164069Y-121331306D01*
X93926243Y-121283999D01*
X93683757Y-121283999D01*
X93445931Y-121331306D01*
X93221903Y-121424101D01*
X93211000Y-121431386D01*
X93211000Y-121058612D01*
X93221903Y-121065897D01*
X93445931Y-121158692D01*
X93683757Y-121205999D01*
X93926243Y-121205999D01*
X94164069Y-121158692D01*
X94388097Y-121065897D01*
X94589717Y-120931179D01*
X94761180Y-120759716D01*
X94895898Y-120558096D01*
X94988693Y-120334068D01*
X95036000Y-120096242D01*
X95036000Y-119853756D01*
X94988693Y-119615930D01*
X94895898Y-119391902D01*
X94761180Y-119190282D01*
X94589717Y-119018819D01*
X94388097Y-118884101D01*
X94164069Y-118791306D01*
X93926243Y-118743999D01*
X93683757Y-118743999D01*
X93445931Y-118791306D01*
X93221903Y-118884101D01*
X93211000Y-118891386D01*
X93211000Y-118518612D01*
X93221903Y-118525897D01*
X93445931Y-118618692D01*
X93683757Y-118665999D01*
X93926243Y-118665999D01*
X94164069Y-118618692D01*
X94388097Y-118525897D01*
X94589717Y-118391179D01*
X94761180Y-118219716D01*
X94895898Y-118018096D01*
X94988693Y-117794068D01*
X95036000Y-117556242D01*
X95036000Y-117313756D01*
X94988693Y-117075930D01*
X94895898Y-116851902D01*
X94761180Y-116650282D01*
X94589717Y-116478819D01*
X94388097Y-116344101D01*
X94164069Y-116251306D01*
X93926243Y-116203999D01*
X93683757Y-116203999D01*
X93445931Y-116251306D01*
X93221903Y-116344101D01*
X93211000Y-116351386D01*
X93211000Y-115978612D01*
X93221903Y-115985897D01*
X93445931Y-116078692D01*
X93683757Y-116125999D01*
X93926243Y-116125999D01*
X94164069Y-116078692D01*
X94388097Y-115985897D01*
X94589717Y-115851179D01*
X94761180Y-115679716D01*
X94895898Y-115478096D01*
X94988693Y-115254068D01*
X95036000Y-115016242D01*
X95036000Y-114773756D01*
X94988693Y-114535930D01*
X94895898Y-114311902D01*
X94761180Y-114110282D01*
X94589717Y-113938819D01*
X94388097Y-113804101D01*
X94164069Y-113711306D01*
X93926243Y-113663999D01*
X93683757Y-113663999D01*
X93445931Y-113711306D01*
X93221903Y-113804101D01*
X93211000Y-113811386D01*
X93211000Y-113438612D01*
X93221903Y-113445897D01*
X93445931Y-113538692D01*
X93683757Y-113585999D01*
X93926243Y-113585999D01*
X94164069Y-113538692D01*
X94388097Y-113445897D01*
X94589717Y-113311179D01*
X94761180Y-113139716D01*
X94895898Y-112938096D01*
X94988693Y-112714068D01*
X95036000Y-112476242D01*
X95036000Y-112233756D01*
X94988693Y-111995930D01*
X94895898Y-111771902D01*
X94761180Y-111570282D01*
X94589717Y-111398819D01*
X94388097Y-111264101D01*
X94164069Y-111171306D01*
X93926243Y-111123999D01*
X93683757Y-111123999D01*
X93445931Y-111171306D01*
X93221903Y-111264101D01*
X93211000Y-111271386D01*
X93211000Y-110898612D01*
X93221903Y-110905897D01*
X93445931Y-110998692D01*
X93683757Y-111045999D01*
X93926243Y-111045999D01*
X94164069Y-110998692D01*
X94388097Y-110905897D01*
X94589717Y-110771179D01*
X94761180Y-110599716D01*
X94895898Y-110398096D01*
X94988693Y-110174068D01*
X95036000Y-109936242D01*
X95036000Y-109693756D01*
X95114000Y-109693756D01*
X95114000Y-109936242D01*
X95161307Y-110174068D01*
X95254102Y-110398096D01*
X95388820Y-110599716D01*
X95560283Y-110771179D01*
X95761903Y-110905897D01*
X95985931Y-110998692D01*
X96223757Y-111045999D01*
X96466243Y-111045999D01*
X96704069Y-110998692D01*
X96928097Y-110905897D01*
X97129717Y-110771179D01*
X97301180Y-110599716D01*
X97435898Y-110398096D01*
X97528693Y-110174068D01*
X97576000Y-109936242D01*
X97576000Y-109693756D01*
X97654000Y-109693756D01*
X97654000Y-109936242D01*
X97701307Y-110174068D01*
X97794102Y-110398096D01*
X97928820Y-110599716D01*
X98100283Y-110771179D01*
X98301903Y-110905897D01*
X98525931Y-110998692D01*
X98763757Y-111045999D01*
X99006243Y-111045999D01*
X99244069Y-110998692D01*
X99468097Y-110905897D01*
X99669717Y-110771179D01*
X99841180Y-110599716D01*
X99975898Y-110398096D01*
X100068693Y-110174068D01*
X100116000Y-109936242D01*
X100116000Y-109693756D01*
X100068693Y-109455930D01*
X99975898Y-109231902D01*
X99841180Y-109030282D01*
X99669717Y-108858819D01*
X99468097Y-108724101D01*
X99244069Y-108631306D01*
X99006243Y-108583999D01*
X98763757Y-108583999D01*
X98525931Y-108631306D01*
X98301903Y-108724101D01*
X98100283Y-108858819D01*
X97928820Y-109030282D01*
X97794102Y-109231902D01*
X97701307Y-109455930D01*
X97654000Y-109693756D01*
X97576000Y-109693756D01*
X97528693Y-109455930D01*
X97435898Y-109231902D01*
X97301180Y-109030282D01*
X97129717Y-108858819D01*
X96928097Y-108724101D01*
X96704069Y-108631306D01*
X96466243Y-108583999D01*
X96223757Y-108583999D01*
X95985931Y-108631306D01*
X95761903Y-108724101D01*
X95560283Y-108858819D01*
X95388820Y-109030282D01*
X95254102Y-109231902D01*
X95161307Y-109455930D01*
X95114000Y-109693756D01*
X95036000Y-109693756D01*
X94988693Y-109455930D01*
X94895898Y-109231902D01*
X94761180Y-109030282D01*
X94589717Y-108858819D01*
X94388097Y-108724101D01*
X94164069Y-108631306D01*
X93926243Y-108583999D01*
X93683757Y-108583999D01*
X93445931Y-108631306D01*
X93221903Y-108724101D01*
X93211000Y-108731386D01*
X93211000Y-108451000D01*
X107147000Y-108451000D01*
X107147000Y-108647186D01*
%TA.AperFunction,Conductor*%
D22*
G36*
X107147000Y-108647186D02*
G01*
X107015776Y-108577045D01*
X106764411Y-108500794D01*
X106568507Y-108481499D01*
X104250498Y-108481499D01*
X104185000Y-108475048D01*
X104119503Y-108481499D01*
X104119493Y-108481499D01*
X103923589Y-108500794D01*
X103672224Y-108577045D01*
X103570709Y-108631306D01*
X103440563Y-108700870D01*
X103344638Y-108779594D01*
X103237512Y-108867510D01*
X103195751Y-108918396D01*
X96893397Y-115220750D01*
X96842511Y-115262511D01*
X96800752Y-115313395D01*
X96675871Y-115465563D01*
X96669172Y-115478096D01*
X96552046Y-115697224D01*
X96475795Y-115948589D01*
X96456500Y-116144493D01*
X96456500Y-116144503D01*
X96450049Y-116210000D01*
X96456500Y-116275498D01*
X96456501Y-118462481D01*
X96456500Y-118462491D01*
X96456501Y-128839483D01*
X96456500Y-128839493D01*
X96456501Y-136364353D01*
X96443492Y-136368299D01*
X96377304Y-136403678D01*
X96319289Y-136451289D01*
X96271678Y-136509304D01*
X96236299Y-136575492D01*
X96214513Y-136647311D01*
X96207157Y-136722000D01*
X96207157Y-139122000D01*
X96214513Y-139196689D01*
X96236299Y-139268508D01*
X96271678Y-139334696D01*
X96319289Y-139392711D01*
X96377304Y-139440322D01*
X96443492Y-139475701D01*
X96456501Y-139479647D01*
X96456500Y-150212456D01*
X96415311Y-150216513D01*
X96343492Y-150238299D01*
X96277304Y-150273678D01*
X96219289Y-150321289D01*
X96171678Y-150379304D01*
X96136299Y-150445492D01*
X96114513Y-150517311D01*
X96107157Y-150592000D01*
X96107157Y-153192000D01*
X96114513Y-153266689D01*
X96136299Y-153338508D01*
X96171678Y-153404696D01*
X96219289Y-153462711D01*
X96277304Y-153510322D01*
X96343492Y-153545701D01*
X96415311Y-153567487D01*
X96490000Y-153574843D01*
X99090000Y-153574843D01*
X99164689Y-153567487D01*
X99236508Y-153545701D01*
X99302696Y-153510322D01*
X99360711Y-153462711D01*
X99408322Y-153404696D01*
X99443701Y-153338508D01*
X99465487Y-153266689D01*
X99467995Y-153241224D01*
X101700381Y-153241224D01*
X101832317Y-153536312D01*
X102173045Y-153707159D01*
X102540557Y-153808250D01*
X102920729Y-153835701D01*
X103298951Y-153788457D01*
X103660690Y-153668333D01*
X103907683Y-153536312D01*
X104039619Y-153241224D01*
X102870000Y-152071605D01*
X101700381Y-153241224D01*
X99467995Y-153241224D01*
X99472843Y-153192000D01*
X99472843Y-151942729D01*
X100926299Y-151942729D01*
X100973543Y-152320951D01*
X101093667Y-152682690D01*
X101225688Y-152929683D01*
X101520776Y-153061619D01*
X102690395Y-151892000D01*
X103049605Y-151892000D01*
X104219224Y-153061619D01*
X104514312Y-152929683D01*
X104685159Y-152588955D01*
X104786250Y-152221443D01*
X104813701Y-151841271D01*
X104766457Y-151463049D01*
X104646333Y-151101310D01*
X104514312Y-150854317D01*
X104219224Y-150722381D01*
X103049605Y-151892000D01*
X102690395Y-151892000D01*
X101520776Y-150722381D01*
X101225688Y-150854317D01*
X101054841Y-151195045D01*
X100953750Y-151562557D01*
X100926299Y-151942729D01*
X99472843Y-151942729D01*
X99472843Y-150592000D01*
X99467996Y-150542776D01*
X101700381Y-150542776D01*
X102870000Y-151712395D01*
X104039619Y-150542776D01*
X103907683Y-150247688D01*
X103566955Y-150076841D01*
X103199443Y-149975750D01*
X102819271Y-149948299D01*
X102441049Y-149995543D01*
X102079310Y-150115667D01*
X101832317Y-150247688D01*
X101700381Y-150542776D01*
X99467996Y-150542776D01*
X99465487Y-150517311D01*
X99443701Y-150445492D01*
X99408322Y-150379304D01*
X99360711Y-150321289D01*
X99302696Y-150273678D01*
X99236508Y-150238299D01*
X99164689Y-150216513D01*
X99123500Y-150212456D01*
X99123500Y-139479647D01*
X99136508Y-139475701D01*
X99202696Y-139440322D01*
X99260711Y-139392711D01*
X99308322Y-139334696D01*
X99343701Y-139268508D01*
X99364488Y-139199980D01*
X101691626Y-139199980D01*
X101811514Y-139484836D01*
X102135210Y-139645699D01*
X102484069Y-139740322D01*
X102844684Y-139765067D01*
X103203198Y-139718985D01*
X103545833Y-139603846D01*
X103768486Y-139484836D01*
X103888374Y-139199980D01*
X102790000Y-138101605D01*
X101691626Y-139199980D01*
X99364488Y-139199980D01*
X99365487Y-139196689D01*
X99372843Y-139122000D01*
X99372843Y-137976684D01*
X100946933Y-137976684D01*
X100993015Y-138335198D01*
X101108154Y-138677833D01*
X101227164Y-138900486D01*
X101512020Y-139020374D01*
X102610395Y-137922000D01*
X102969605Y-137922000D01*
X104067980Y-139020374D01*
X104352836Y-138900486D01*
X104513699Y-138576790D01*
X104608322Y-138227931D01*
X104633067Y-137867316D01*
X104586985Y-137508802D01*
X104471846Y-137166167D01*
X104352836Y-136943514D01*
X104067980Y-136823626D01*
X102969605Y-137922000D01*
X102610395Y-137922000D01*
X101512020Y-136823626D01*
X101227164Y-136943514D01*
X101066301Y-137267210D01*
X100971678Y-137616069D01*
X100946933Y-137976684D01*
X99372843Y-137976684D01*
X99372843Y-136722000D01*
X99365487Y-136647311D01*
X99364489Y-136644020D01*
X101691626Y-136644020D01*
X102790000Y-137742395D01*
X103888374Y-136644020D01*
X103768486Y-136359164D01*
X103444790Y-136198301D01*
X103095931Y-136103678D01*
X102735316Y-136078933D01*
X102376802Y-136125015D01*
X102034167Y-136240154D01*
X101811514Y-136359164D01*
X101691626Y-136644020D01*
X99364489Y-136644020D01*
X99343701Y-136575492D01*
X99308322Y-136509304D01*
X99260711Y-136451289D01*
X99202696Y-136403678D01*
X99136508Y-136368299D01*
X99123500Y-136364353D01*
X99123500Y-129159000D01*
X100498157Y-129159000D01*
X100498157Y-129243000D01*
X100505513Y-129317689D01*
X100527299Y-129389508D01*
X100562678Y-129455696D01*
X100610289Y-129513711D01*
X100668304Y-129561322D01*
X100734492Y-129596701D01*
X100806311Y-129618487D01*
X100881000Y-129625843D01*
X103081000Y-129625843D01*
X103155689Y-129618487D01*
X103227508Y-129596701D01*
X103293696Y-129561322D01*
X103351711Y-129513711D01*
X103399322Y-129455696D01*
X103434701Y-129389508D01*
X103456487Y-129317689D01*
X103463843Y-129243000D01*
X103463843Y-128444999D01*
X105014927Y-128444999D01*
X105027187Y-128569481D01*
X105063497Y-128689179D01*
X105122462Y-128799493D01*
X105201814Y-128896184D01*
X105298505Y-128975536D01*
X105408819Y-129034501D01*
X105528517Y-129070811D01*
X105652999Y-129083071D01*
X106217249Y-129079999D01*
X106375999Y-128921249D01*
X106375999Y-127721999D01*
X105176749Y-127721999D01*
X105017999Y-127880749D01*
X105014927Y-128444999D01*
X103463843Y-128444999D01*
X103463843Y-127043000D01*
X103456487Y-126968311D01*
X103434701Y-126896492D01*
X103399322Y-126830304D01*
X103351711Y-126772289D01*
X103293696Y-126724678D01*
X103227508Y-126689299D01*
X103155689Y-126667513D01*
X103081000Y-126660157D01*
X100881000Y-126660157D01*
X100806311Y-126667513D01*
X100734492Y-126689299D01*
X100668304Y-126724678D01*
X100610289Y-126772289D01*
X100562678Y-126830304D01*
X100527299Y-126896492D01*
X100505513Y-126968311D01*
X100498157Y-127043000D01*
X100498157Y-127127000D01*
X99123500Y-127127000D01*
X99123500Y-116762353D01*
X104737354Y-111148499D01*
X105640651Y-111148499D01*
X105621644Y-111159821D01*
X105405411Y-111354730D01*
X105231358Y-111588079D01*
X105106174Y-111850900D01*
X105061523Y-111998109D01*
X105182844Y-112227999D01*
X106375999Y-112227999D01*
X106375999Y-112207999D01*
X106629999Y-112207999D01*
X106629999Y-112227999D01*
X107147000Y-112227999D01*
X107147000Y-112481999D01*
X106629999Y-112481999D01*
X106629999Y-112501999D01*
X106375999Y-112501999D01*
X106375999Y-112481999D01*
X105182844Y-112481999D01*
X105061523Y-112711889D01*
X105106174Y-112859098D01*
X105231358Y-113121919D01*
X105405411Y-113355268D01*
X105621644Y-113550177D01*
X105871747Y-113699156D01*
X106034167Y-113756771D01*
X105919902Y-113804101D01*
X105718282Y-113938819D01*
X105546819Y-114110282D01*
X105412101Y-114311902D01*
X105319306Y-114535930D01*
X105271999Y-114773756D01*
X105271999Y-115016242D01*
X105319306Y-115254068D01*
X105412101Y-115478096D01*
X105546819Y-115679716D01*
X105718282Y-115851179D01*
X105919902Y-115985897D01*
X106143930Y-116078692D01*
X106381756Y-116125999D01*
X106624242Y-116125999D01*
X106862068Y-116078692D01*
X107086096Y-115985897D01*
X107147000Y-115945202D01*
X107147000Y-116384796D01*
X107086096Y-116344101D01*
X106862068Y-116251306D01*
X106624242Y-116203999D01*
X106381756Y-116203999D01*
X106143930Y-116251306D01*
X105919902Y-116344101D01*
X105718282Y-116478819D01*
X105546819Y-116650282D01*
X105412101Y-116851902D01*
X105319306Y-117075930D01*
X105271999Y-117313756D01*
X105271999Y-117556242D01*
X105319306Y-117794068D01*
X105412101Y-118018096D01*
X105546819Y-118219716D01*
X105718282Y-118391179D01*
X105919902Y-118525897D01*
X106143930Y-118618692D01*
X106381756Y-118665999D01*
X106624242Y-118665999D01*
X106862068Y-118618692D01*
X107086096Y-118525897D01*
X107147000Y-118485202D01*
X107147000Y-118924796D01*
X107086096Y-118884101D01*
X106862068Y-118791306D01*
X106624242Y-118743999D01*
X106381756Y-118743999D01*
X106143930Y-118791306D01*
X105919902Y-118884101D01*
X105718282Y-119018819D01*
X105546819Y-119190282D01*
X105412101Y-119391902D01*
X105319306Y-119615930D01*
X105271999Y-119853756D01*
X105271999Y-120096242D01*
X105319306Y-120334068D01*
X105412101Y-120558096D01*
X105546819Y-120759716D01*
X105718282Y-120931179D01*
X105919902Y-121065897D01*
X106143930Y-121158692D01*
X106381756Y-121205999D01*
X106624242Y-121205999D01*
X106862068Y-121158692D01*
X107086096Y-121065897D01*
X107147000Y-121025202D01*
X107147000Y-121464796D01*
X107086096Y-121424101D01*
X106862068Y-121331306D01*
X106624242Y-121283999D01*
X106381756Y-121283999D01*
X106143930Y-121331306D01*
X105919902Y-121424101D01*
X105718282Y-121558819D01*
X105546819Y-121730282D01*
X105412101Y-121931902D01*
X105319306Y-122155930D01*
X105273094Y-122388253D01*
X102997000Y-120112160D01*
X102997000Y-119061451D01*
X103131368Y-118927083D01*
X103293445Y-118684517D01*
X103405086Y-118414992D01*
X103462000Y-118128866D01*
X103462000Y-117837134D01*
X103405086Y-117551008D01*
X103293445Y-117281483D01*
X103131368Y-117038917D01*
X102925083Y-116832632D01*
X102682517Y-116670555D01*
X102412992Y-116558914D01*
X102126866Y-116502000D01*
X101835134Y-116502000D01*
X101549008Y-116558914D01*
X101279483Y-116670555D01*
X101036917Y-116832632D01*
X100830632Y-117038917D01*
X100668555Y-117281483D01*
X100556914Y-117551008D01*
X100500000Y-117837134D01*
X100500000Y-118128866D01*
X100556914Y-118414992D01*
X100668555Y-118684517D01*
X100830632Y-118927083D01*
X100965001Y-119061452D01*
X100965000Y-120483098D01*
X100960085Y-120533000D01*
X100965000Y-120582901D01*
X100979702Y-120732170D01*
X101037798Y-120923686D01*
X101132140Y-121100190D01*
X101259104Y-121254896D01*
X101297872Y-121286712D01*
X105293005Y-125281846D01*
X105319306Y-125414068D01*
X105412101Y-125638096D01*
X105546819Y-125839716D01*
X105718282Y-126011179D01*
X105863293Y-126108072D01*
X105652999Y-126106927D01*
X105528517Y-126119187D01*
X105408819Y-126155497D01*
X105298505Y-126214462D01*
X105201814Y-126293814D01*
X105122462Y-126390505D01*
X105063497Y-126500819D01*
X105027187Y-126620517D01*
X105014927Y-126744999D01*
X105017999Y-127309249D01*
X105176749Y-127467999D01*
X106375999Y-127467999D01*
X106375999Y-127447999D01*
X106629999Y-127447999D01*
X106629999Y-127467999D01*
X107147000Y-127467999D01*
X107147000Y-127721999D01*
X106629999Y-127721999D01*
X106629999Y-128921249D01*
X106788749Y-129079999D01*
X107147000Y-129081949D01*
X107147001Y-156586000D01*
X93211000Y-156586000D01*
X93211000Y-128827842D01*
X94655000Y-128827842D01*
X94729689Y-128820486D01*
X94801508Y-128798700D01*
X94867696Y-128763321D01*
X94925711Y-128715710D01*
X94973322Y-128657695D01*
X95008701Y-128591507D01*
X95030487Y-128519688D01*
X95037843Y-128444999D01*
X95037843Y-126744999D01*
X95030487Y-126670310D01*
X95008701Y-126598491D01*
X94973322Y-126532303D01*
X94925711Y-126474288D01*
X94867696Y-126426677D01*
X94801508Y-126391298D01*
X94729689Y-126369512D01*
X94655000Y-126362156D01*
X93211000Y-126362156D01*
X93211000Y-126138612D01*
X93221903Y-126145897D01*
X93445931Y-126238692D01*
X93683757Y-126285999D01*
X93926243Y-126285999D01*
X94164069Y-126238692D01*
X94388097Y-126145897D01*
X94589717Y-126011179D01*
X94761180Y-125839716D01*
X94895898Y-125638096D01*
X94988693Y-125414068D01*
X95036000Y-125176242D01*
X95036000Y-124933756D01*
X94988693Y-124695930D01*
X94895898Y-124471902D01*
X94761180Y-124270282D01*
X94589717Y-124098819D01*
X94388097Y-123964101D01*
X94164069Y-123871306D01*
X93926243Y-123823999D01*
X93683757Y-123823999D01*
X93445931Y-123871306D01*
X93221903Y-123964101D01*
X93211000Y-123971386D01*
X93211000Y-123598612D01*
X93221903Y-123605897D01*
X93445931Y-123698692D01*
X93683757Y-123745999D01*
X93926243Y-123745999D01*
X94164069Y-123698692D01*
X94388097Y-123605897D01*
X94589717Y-123471179D01*
X94761180Y-123299716D01*
X94895898Y-123098096D01*
X94988693Y-122874068D01*
X95036000Y-122636242D01*
X95036000Y-122393756D01*
X94988693Y-122155930D01*
X94895898Y-121931902D01*
X94761180Y-121730282D01*
X94589717Y-121558819D01*
X94388097Y-121424101D01*
X94164069Y-121331306D01*
X93926243Y-121283999D01*
X93683757Y-121283999D01*
X93445931Y-121331306D01*
X93221903Y-121424101D01*
X93211000Y-121431386D01*
X93211000Y-121058612D01*
X93221903Y-121065897D01*
X93445931Y-121158692D01*
X93683757Y-121205999D01*
X93926243Y-121205999D01*
X94164069Y-121158692D01*
X94388097Y-121065897D01*
X94589717Y-120931179D01*
X94761180Y-120759716D01*
X94895898Y-120558096D01*
X94988693Y-120334068D01*
X95036000Y-120096242D01*
X95036000Y-119853756D01*
X94988693Y-119615930D01*
X94895898Y-119391902D01*
X94761180Y-119190282D01*
X94589717Y-119018819D01*
X94388097Y-118884101D01*
X94164069Y-118791306D01*
X93926243Y-118743999D01*
X93683757Y-118743999D01*
X93445931Y-118791306D01*
X93221903Y-118884101D01*
X93211000Y-118891386D01*
X93211000Y-118518612D01*
X93221903Y-118525897D01*
X93445931Y-118618692D01*
X93683757Y-118665999D01*
X93926243Y-118665999D01*
X94164069Y-118618692D01*
X94388097Y-118525897D01*
X94589717Y-118391179D01*
X94761180Y-118219716D01*
X94895898Y-118018096D01*
X94988693Y-117794068D01*
X95036000Y-117556242D01*
X95036000Y-117313756D01*
X94988693Y-117075930D01*
X94895898Y-116851902D01*
X94761180Y-116650282D01*
X94589717Y-116478819D01*
X94388097Y-116344101D01*
X94164069Y-116251306D01*
X93926243Y-116203999D01*
X93683757Y-116203999D01*
X93445931Y-116251306D01*
X93221903Y-116344101D01*
X93211000Y-116351386D01*
X93211000Y-115978612D01*
X93221903Y-115985897D01*
X93445931Y-116078692D01*
X93683757Y-116125999D01*
X93926243Y-116125999D01*
X94164069Y-116078692D01*
X94388097Y-115985897D01*
X94589717Y-115851179D01*
X94761180Y-115679716D01*
X94895898Y-115478096D01*
X94988693Y-115254068D01*
X95036000Y-115016242D01*
X95036000Y-114773756D01*
X94988693Y-114535930D01*
X94895898Y-114311902D01*
X94761180Y-114110282D01*
X94589717Y-113938819D01*
X94388097Y-113804101D01*
X94164069Y-113711306D01*
X93926243Y-113663999D01*
X93683757Y-113663999D01*
X93445931Y-113711306D01*
X93221903Y-113804101D01*
X93211000Y-113811386D01*
X93211000Y-113438612D01*
X93221903Y-113445897D01*
X93445931Y-113538692D01*
X93683757Y-113585999D01*
X93926243Y-113585999D01*
X94164069Y-113538692D01*
X94388097Y-113445897D01*
X94589717Y-113311179D01*
X94761180Y-113139716D01*
X94895898Y-112938096D01*
X94988693Y-112714068D01*
X95036000Y-112476242D01*
X95036000Y-112233756D01*
X94988693Y-111995930D01*
X94895898Y-111771902D01*
X94761180Y-111570282D01*
X94589717Y-111398819D01*
X94388097Y-111264101D01*
X94164069Y-111171306D01*
X93926243Y-111123999D01*
X93683757Y-111123999D01*
X93445931Y-111171306D01*
X93221903Y-111264101D01*
X93211000Y-111271386D01*
X93211000Y-110898612D01*
X93221903Y-110905897D01*
X93445931Y-110998692D01*
X93683757Y-111045999D01*
X93926243Y-111045999D01*
X94164069Y-110998692D01*
X94388097Y-110905897D01*
X94589717Y-110771179D01*
X94761180Y-110599716D01*
X94895898Y-110398096D01*
X94988693Y-110174068D01*
X95036000Y-109936242D01*
X95036000Y-109693756D01*
X95114000Y-109693756D01*
X95114000Y-109936242D01*
X95161307Y-110174068D01*
X95254102Y-110398096D01*
X95388820Y-110599716D01*
X95560283Y-110771179D01*
X95761903Y-110905897D01*
X95985931Y-110998692D01*
X96223757Y-111045999D01*
X96466243Y-111045999D01*
X96704069Y-110998692D01*
X96928097Y-110905897D01*
X97129717Y-110771179D01*
X97301180Y-110599716D01*
X97435898Y-110398096D01*
X97528693Y-110174068D01*
X97576000Y-109936242D01*
X97576000Y-109693756D01*
X97654000Y-109693756D01*
X97654000Y-109936242D01*
X97701307Y-110174068D01*
X97794102Y-110398096D01*
X97928820Y-110599716D01*
X98100283Y-110771179D01*
X98301903Y-110905897D01*
X98525931Y-110998692D01*
X98763757Y-111045999D01*
X99006243Y-111045999D01*
X99244069Y-110998692D01*
X99468097Y-110905897D01*
X99669717Y-110771179D01*
X99841180Y-110599716D01*
X99975898Y-110398096D01*
X100068693Y-110174068D01*
X100116000Y-109936242D01*
X100116000Y-109693756D01*
X100068693Y-109455930D01*
X99975898Y-109231902D01*
X99841180Y-109030282D01*
X99669717Y-108858819D01*
X99468097Y-108724101D01*
X99244069Y-108631306D01*
X99006243Y-108583999D01*
X98763757Y-108583999D01*
X98525931Y-108631306D01*
X98301903Y-108724101D01*
X98100283Y-108858819D01*
X97928820Y-109030282D01*
X97794102Y-109231902D01*
X97701307Y-109455930D01*
X97654000Y-109693756D01*
X97576000Y-109693756D01*
X97528693Y-109455930D01*
X97435898Y-109231902D01*
X97301180Y-109030282D01*
X97129717Y-108858819D01*
X96928097Y-108724101D01*
X96704069Y-108631306D01*
X96466243Y-108583999D01*
X96223757Y-108583999D01*
X95985931Y-108631306D01*
X95761903Y-108724101D01*
X95560283Y-108858819D01*
X95388820Y-109030282D01*
X95254102Y-109231902D01*
X95161307Y-109455930D01*
X95114000Y-109693756D01*
X95036000Y-109693756D01*
X94988693Y-109455930D01*
X94895898Y-109231902D01*
X94761180Y-109030282D01*
X94589717Y-108858819D01*
X94388097Y-108724101D01*
X94164069Y-108631306D01*
X93926243Y-108583999D01*
X93683757Y-108583999D01*
X93445931Y-108631306D01*
X93221903Y-108724101D01*
X93211000Y-108731386D01*
X93211000Y-108451000D01*
X107147000Y-108451000D01*
X107147000Y-108647186D01*
G37*
%TD.AperFunction*%
%TD*%
M02*
