%TF.GenerationSoftware,KiCad,Pcbnew,(5.1.9)-1*%
%TF.CreationDate,2021-12-09T11:09:14-03:00*%
%TF.ProjectId,HV_stepstick_adapter,48565f73-7465-4707-9374-69636b5f6164,rev?*%
%TF.SameCoordinates,Original*%
%TF.FileFunction,Legend,Bot*%
%TF.FilePolarity,Positive*%
%FSLAX46Y46*%
G04 Gerber Fmt 4.6, Leading zero omitted, Abs format (unit mm)*
G04 Created by KiCad (PCBNEW (5.1.9)-1) date 2021-12-09 11:09:14*
%MOMM*%
%LPD*%
G01*
G04 APERTURE LIST*
%ADD10C,0.150000*%
%ADD11R,2.400000X2.400000*%
%ADD12C,2.400000*%
%ADD13R,2.600000X2.600000*%
%ADD14C,2.600000*%
%ADD15R,1.700000X1.700000*%
%ADD16O,1.700000X1.700000*%
%ADD17C,1.700000*%
%ADD18R,2.200000X2.200000*%
%ADD19O,2.200000X2.200000*%
G04 APERTURE END LIST*
D10*
X98196352Y-149347228D02*
X97434447Y-149347228D01*
X97815400Y-149728180D02*
X97815400Y-148966276D01*
X102850628Y-146445314D02*
X102850628Y-147111980D01*
X103088723Y-146064361D02*
X103326819Y-146778647D01*
X102707771Y-146778647D01*
X102183961Y-146540552D02*
X102279200Y-146492933D01*
X102326819Y-146445314D01*
X102374438Y-146350076D01*
X102374438Y-146302457D01*
X102326819Y-146207219D01*
X102279200Y-146159600D01*
X102183961Y-146111980D01*
X101993485Y-146111980D01*
X101898247Y-146159600D01*
X101850628Y-146207219D01*
X101803009Y-146302457D01*
X101803009Y-146350076D01*
X101850628Y-146445314D01*
X101898247Y-146492933D01*
X101993485Y-146540552D01*
X102183961Y-146540552D01*
X102279200Y-146588171D01*
X102326819Y-146635790D01*
X102374438Y-146731028D01*
X102374438Y-146921504D01*
X102326819Y-147016742D01*
X102279200Y-147064361D01*
X102183961Y-147111980D01*
X101993485Y-147111980D01*
X101898247Y-147064361D01*
X101850628Y-147016742D01*
X101803009Y-146921504D01*
X101803009Y-146731028D01*
X101850628Y-146635790D01*
X101898247Y-146588171D01*
X101993485Y-146540552D01*
X101517295Y-146111980D02*
X101183961Y-147111980D01*
X100850628Y-146111980D01*
X99755390Y-147111980D02*
X99755390Y-146111980D01*
X99422057Y-146826266D01*
X99088723Y-146111980D01*
X99088723Y-147111980D01*
X98660152Y-146826266D02*
X98183961Y-146826266D01*
X98755390Y-147111980D02*
X98422057Y-146111980D01*
X98088723Y-147111980D01*
X97850628Y-146111980D02*
X97183961Y-147111980D01*
X97183961Y-146111980D02*
X97850628Y-147111980D01*
X101695071Y-120913380D02*
X101695071Y-119913380D01*
X101695071Y-120389571D02*
X101123642Y-120389571D01*
X101123642Y-120913380D02*
X101123642Y-119913380D01*
X100647452Y-120913380D02*
X100647452Y-120246714D01*
X100647452Y-119913380D02*
X100695071Y-119961000D01*
X100647452Y-120008619D01*
X100599833Y-119961000D01*
X100647452Y-119913380D01*
X100647452Y-120008619D01*
X99742690Y-120246714D02*
X99742690Y-121056238D01*
X99790309Y-121151476D01*
X99837928Y-121199095D01*
X99933166Y-121246714D01*
X100076023Y-121246714D01*
X100171261Y-121199095D01*
X99742690Y-120865761D02*
X99837928Y-120913380D01*
X100028404Y-120913380D01*
X100123642Y-120865761D01*
X100171261Y-120818142D01*
X100218880Y-120722904D01*
X100218880Y-120437190D01*
X100171261Y-120341952D01*
X100123642Y-120294333D01*
X100028404Y-120246714D01*
X99837928Y-120246714D01*
X99742690Y-120294333D01*
X99266500Y-120913380D02*
X99266500Y-119913380D01*
X98837928Y-120913380D02*
X98837928Y-120389571D01*
X98885547Y-120294333D01*
X98980785Y-120246714D01*
X99123642Y-120246714D01*
X99218880Y-120294333D01*
X99266500Y-120341952D01*
X102933166Y-121563380D02*
X102599833Y-122563380D01*
X102266500Y-121563380D01*
X101790309Y-122563380D02*
X101885547Y-122515761D01*
X101933166Y-122468142D01*
X101980785Y-122372904D01*
X101980785Y-122087190D01*
X101933166Y-121991952D01*
X101885547Y-121944333D01*
X101790309Y-121896714D01*
X101647452Y-121896714D01*
X101552214Y-121944333D01*
X101504595Y-121991952D01*
X101456976Y-122087190D01*
X101456976Y-122372904D01*
X101504595Y-122468142D01*
X101552214Y-122515761D01*
X101647452Y-122563380D01*
X101790309Y-122563380D01*
X100885547Y-122563380D02*
X100980785Y-122515761D01*
X101028404Y-122420523D01*
X101028404Y-121563380D01*
X100647452Y-121896714D02*
X100266500Y-121896714D01*
X100504595Y-121563380D02*
X100504595Y-122420523D01*
X100456976Y-122515761D01*
X100361738Y-122563380D01*
X100266500Y-122563380D01*
X99504595Y-122563380D02*
X99504595Y-122039571D01*
X99552214Y-121944333D01*
X99647452Y-121896714D01*
X99837928Y-121896714D01*
X99933166Y-121944333D01*
X99504595Y-122515761D02*
X99599833Y-122563380D01*
X99837928Y-122563380D01*
X99933166Y-122515761D01*
X99980785Y-122420523D01*
X99980785Y-122325285D01*
X99933166Y-122230047D01*
X99837928Y-122182428D01*
X99599833Y-122182428D01*
X99504595Y-122134809D01*
X98599833Y-121896714D02*
X98599833Y-122706238D01*
X98647452Y-122801476D01*
X98695071Y-122849095D01*
X98790309Y-122896714D01*
X98933166Y-122896714D01*
X99028404Y-122849095D01*
X98599833Y-122515761D02*
X98695071Y-122563380D01*
X98885547Y-122563380D01*
X98980785Y-122515761D01*
X99028404Y-122468142D01*
X99076023Y-122372904D01*
X99076023Y-122087190D01*
X99028404Y-121991952D01*
X98980785Y-121944333D01*
X98885547Y-121896714D01*
X98695071Y-121896714D01*
X98599833Y-121944333D01*
X97742690Y-122515761D02*
X97837928Y-122563380D01*
X98028404Y-122563380D01*
X98123642Y-122515761D01*
X98171261Y-122420523D01*
X98171261Y-122039571D01*
X98123642Y-121944333D01*
X98028404Y-121896714D01*
X97837928Y-121896714D01*
X97742690Y-121944333D01*
X97695071Y-122039571D01*
X97695071Y-122134809D01*
X98171261Y-122230047D01*
X103552214Y-124165761D02*
X103409357Y-124213380D01*
X103171261Y-124213380D01*
X103076023Y-124165761D01*
X103028404Y-124118142D01*
X102980785Y-124022904D01*
X102980785Y-123927666D01*
X103028404Y-123832428D01*
X103076023Y-123784809D01*
X103171261Y-123737190D01*
X103361738Y-123689571D01*
X103456976Y-123641952D01*
X103504595Y-123594333D01*
X103552214Y-123499095D01*
X103552214Y-123403857D01*
X103504595Y-123308619D01*
X103456976Y-123261000D01*
X103361738Y-123213380D01*
X103123642Y-123213380D01*
X102980785Y-123261000D01*
X102695071Y-123546714D02*
X102314119Y-123546714D01*
X102552214Y-123213380D02*
X102552214Y-124070523D01*
X102504595Y-124165761D01*
X102409357Y-124213380D01*
X102314119Y-124213380D01*
X101599833Y-124165761D02*
X101695071Y-124213380D01*
X101885547Y-124213380D01*
X101980785Y-124165761D01*
X102028404Y-124070523D01*
X102028404Y-123689571D01*
X101980785Y-123594333D01*
X101885547Y-123546714D01*
X101695071Y-123546714D01*
X101599833Y-123594333D01*
X101552214Y-123689571D01*
X101552214Y-123784809D01*
X102028404Y-123880047D01*
X101123642Y-123546714D02*
X101123642Y-124546714D01*
X101123642Y-123594333D02*
X101028404Y-123546714D01*
X100837928Y-123546714D01*
X100742690Y-123594333D01*
X100695071Y-123641952D01*
X100647452Y-123737190D01*
X100647452Y-124022904D01*
X100695071Y-124118142D01*
X100742690Y-124165761D01*
X100837928Y-124213380D01*
X101028404Y-124213380D01*
X101123642Y-124165761D01*
X100266500Y-124165761D02*
X100123642Y-124213380D01*
X99885547Y-124213380D01*
X99790309Y-124165761D01*
X99742690Y-124118142D01*
X99695071Y-124022904D01*
X99695071Y-123927666D01*
X99742690Y-123832428D01*
X99790309Y-123784809D01*
X99885547Y-123737190D01*
X100076023Y-123689571D01*
X100171261Y-123641952D01*
X100218880Y-123594333D01*
X100266500Y-123499095D01*
X100266500Y-123403857D01*
X100218880Y-123308619D01*
X100171261Y-123261000D01*
X100076023Y-123213380D01*
X99837928Y-123213380D01*
X99695071Y-123261000D01*
X99409357Y-123546714D02*
X99028404Y-123546714D01*
X99266500Y-123213380D02*
X99266500Y-124070523D01*
X99218880Y-124165761D01*
X99123642Y-124213380D01*
X99028404Y-124213380D01*
X98695071Y-124213380D02*
X98695071Y-123546714D01*
X98695071Y-123213380D02*
X98742690Y-123261000D01*
X98695071Y-123308619D01*
X98647452Y-123261000D01*
X98695071Y-123213380D01*
X98695071Y-123308619D01*
X97790309Y-124165761D02*
X97885547Y-124213380D01*
X98076023Y-124213380D01*
X98171261Y-124165761D01*
X98218880Y-124118142D01*
X98266500Y-124022904D01*
X98266500Y-123737190D01*
X98218880Y-123641952D01*
X98171261Y-123594333D01*
X98076023Y-123546714D01*
X97885547Y-123546714D01*
X97790309Y-123594333D01*
X97361738Y-124213380D02*
X97361738Y-123213380D01*
X97266500Y-123832428D02*
X96980785Y-124213380D01*
X96980785Y-123546714D02*
X97361738Y-123927666D01*
X102885547Y-125577666D02*
X102409357Y-125577666D01*
X102980785Y-125863380D02*
X102647452Y-124863380D01*
X102314119Y-125863380D01*
X101552214Y-125863380D02*
X101552214Y-124863380D01*
X101552214Y-125815761D02*
X101647452Y-125863380D01*
X101837928Y-125863380D01*
X101933166Y-125815761D01*
X101980785Y-125768142D01*
X102028404Y-125672904D01*
X102028404Y-125387190D01*
X101980785Y-125291952D01*
X101933166Y-125244333D01*
X101837928Y-125196714D01*
X101647452Y-125196714D01*
X101552214Y-125244333D01*
X100647452Y-125863380D02*
X100647452Y-125339571D01*
X100695071Y-125244333D01*
X100790309Y-125196714D01*
X100980785Y-125196714D01*
X101076023Y-125244333D01*
X100647452Y-125815761D02*
X100742690Y-125863380D01*
X100980785Y-125863380D01*
X101076023Y-125815761D01*
X101123642Y-125720523D01*
X101123642Y-125625285D01*
X101076023Y-125530047D01*
X100980785Y-125482428D01*
X100742690Y-125482428D01*
X100647452Y-125434809D01*
X100171261Y-125196714D02*
X100171261Y-126196714D01*
X100171261Y-125244333D02*
X100076023Y-125196714D01*
X99885547Y-125196714D01*
X99790309Y-125244333D01*
X99742690Y-125291952D01*
X99695071Y-125387190D01*
X99695071Y-125672904D01*
X99742690Y-125768142D01*
X99790309Y-125815761D01*
X99885547Y-125863380D01*
X100076023Y-125863380D01*
X100171261Y-125815761D01*
X99409357Y-125196714D02*
X99028404Y-125196714D01*
X99266500Y-124863380D02*
X99266500Y-125720523D01*
X99218880Y-125815761D01*
X99123642Y-125863380D01*
X99028404Y-125863380D01*
X98314119Y-125815761D02*
X98409357Y-125863380D01*
X98599833Y-125863380D01*
X98695071Y-125815761D01*
X98742690Y-125720523D01*
X98742690Y-125339571D01*
X98695071Y-125244333D01*
X98599833Y-125196714D01*
X98409357Y-125196714D01*
X98314119Y-125244333D01*
X98266500Y-125339571D01*
X98266500Y-125434809D01*
X98742690Y-125530047D01*
X97837928Y-125863380D02*
X97837928Y-125196714D01*
X97837928Y-125387190D02*
X97790309Y-125291952D01*
X97742690Y-125244333D01*
X97647452Y-125196714D01*
X97552214Y-125196714D01*
%LPC*%
D11*
%TO.C,C1*%
X97790000Y-137922000D03*
D12*
X102790000Y-137922000D03*
%TD*%
D13*
%TO.C,J1*%
X97790000Y-151892000D03*
D14*
X102870000Y-151892000D03*
%TD*%
D15*
%TO.C,J2*%
X93805000Y-127594999D03*
D16*
X93805000Y-125054999D03*
X93805000Y-122514999D03*
X93805000Y-119974999D03*
X93805000Y-117434999D03*
X93805000Y-114894999D03*
X93805000Y-112354999D03*
X93805000Y-109814999D03*
%TD*%
%TO.C,J3*%
X106502999Y-109814999D03*
X106502999Y-112354999D03*
X106502999Y-114894999D03*
X106502999Y-117434999D03*
X106502999Y-119974999D03*
X106502999Y-122514999D03*
X106502999Y-125054999D03*
D15*
X106502999Y-127594999D03*
%TD*%
D17*
%TO.C,J4*%
X96345000Y-109814999D03*
D16*
X98885000Y-109814999D03*
%TD*%
D18*
%TO.C,D1*%
X101981000Y-128143000D03*
D19*
X101981000Y-117983000D03*
%TD*%
M02*
