%TF.GenerationSoftware,KiCad,Pcbnew,(5.1.9)-1*%
%TF.CreationDate,2021-12-09T11:09:14-03:00*%
%TF.ProjectId,HV_stepstick_adapter,48565f73-7465-4707-9374-69636b5f6164,rev?*%
%TF.SameCoordinates,Original*%
%TF.FileFunction,Legend,Top*%
%TF.FilePolarity,Positive*%
%FSLAX46Y46*%
G04 Gerber Fmt 4.6, Leading zero omitted, Abs format (unit mm)*
G04 Created by KiCad (PCBNEW (5.1.9)-1) date 2021-12-09 11:09:14*
%MOMM*%
%LPD*%
G01*
G04 APERTURE LIST*
%ADD10C,0.120000*%
%ADD11C,0.150000*%
%ADD12R,2.400000X2.400000*%
%ADD13C,2.400000*%
%ADD14R,2.600000X2.600000*%
%ADD15C,2.600000*%
%ADD16R,1.700000X1.700000*%
%ADD17O,1.700000X1.700000*%
%ADD18C,1.700000*%
%ADD19R,2.200000X2.200000*%
%ADD20O,2.200000X2.200000*%
G04 APERTURE END LIST*
D10*
X104750000Y-110000000D02*
X105000000Y-109750000D01*
X104750000Y-109500000D02*
X104750000Y-110000000D01*
X105000000Y-109750000D02*
X104750000Y-109500000D01*
X104000000Y-109750000D02*
X105000000Y-109750000D01*
X102000000Y-111750000D02*
X104000000Y-109750000D01*
D11*
X97083452Y-112517857D02*
X97350119Y-112517857D01*
X97464404Y-112936904D02*
X97083452Y-112936904D01*
X97083452Y-112136904D01*
X97464404Y-112136904D01*
X97731071Y-112936904D02*
X98150119Y-112403571D01*
X97731071Y-112403571D02*
X98150119Y-112936904D01*
X98340595Y-112403571D02*
X98645357Y-112403571D01*
X98454880Y-112136904D02*
X98454880Y-112822619D01*
X98492976Y-112898809D01*
X98569166Y-112936904D01*
X98645357Y-112936904D01*
X98912023Y-112936904D02*
X98912023Y-112403571D01*
X98912023Y-112555952D02*
X98950119Y-112479761D01*
X98988214Y-112441666D01*
X99064404Y-112403571D01*
X99140595Y-112403571D01*
X99750119Y-112936904D02*
X99750119Y-112517857D01*
X99712023Y-112441666D01*
X99635833Y-112403571D01*
X99483452Y-112403571D01*
X99407261Y-112441666D01*
X99750119Y-112898809D02*
X99673928Y-112936904D01*
X99483452Y-112936904D01*
X99407261Y-112898809D01*
X99369166Y-112822619D01*
X99369166Y-112746428D01*
X99407261Y-112670238D01*
X99483452Y-112632142D01*
X99673928Y-112632142D01*
X99750119Y-112594047D01*
X100473928Y-112898809D02*
X100397738Y-112936904D01*
X100245357Y-112936904D01*
X100169166Y-112898809D01*
X100131071Y-112860714D01*
X100092976Y-112784523D01*
X100092976Y-112555952D01*
X100131071Y-112479761D01*
X100169166Y-112441666D01*
X100245357Y-112403571D01*
X100397738Y-112403571D01*
X100473928Y-112441666D01*
X100702500Y-112403571D02*
X101007261Y-112403571D01*
X100816785Y-112136904D02*
X100816785Y-112822619D01*
X100854880Y-112898809D01*
X100931071Y-112936904D01*
X101007261Y-112936904D01*
X101769166Y-112403571D02*
X102073928Y-112403571D01*
X101883452Y-112136904D02*
X101883452Y-112822619D01*
X101921547Y-112898809D01*
X101997738Y-112936904D01*
X102073928Y-112936904D01*
X102340595Y-112936904D02*
X102340595Y-112136904D01*
X102683452Y-112936904D02*
X102683452Y-112517857D01*
X102645357Y-112441666D01*
X102569166Y-112403571D01*
X102454880Y-112403571D01*
X102378690Y-112441666D01*
X102340595Y-112479761D01*
X103064404Y-112936904D02*
X103064404Y-112403571D01*
X103064404Y-112136904D02*
X103026309Y-112175000D01*
X103064404Y-112213095D01*
X103102500Y-112175000D01*
X103064404Y-112136904D01*
X103064404Y-112213095D01*
X103407261Y-112898809D02*
X103483452Y-112936904D01*
X103635833Y-112936904D01*
X103712023Y-112898809D01*
X103750119Y-112822619D01*
X103750119Y-112784523D01*
X103712023Y-112708333D01*
X103635833Y-112670238D01*
X103521547Y-112670238D01*
X103445357Y-112632142D01*
X103407261Y-112555952D01*
X103407261Y-112517857D01*
X103445357Y-112441666D01*
X103521547Y-112403571D01*
X103635833Y-112403571D01*
X103712023Y-112441666D01*
X97388214Y-114248809D02*
X97464404Y-114286904D01*
X97616785Y-114286904D01*
X97692976Y-114248809D01*
X97731071Y-114172619D01*
X97731071Y-114134523D01*
X97692976Y-114058333D01*
X97616785Y-114020238D01*
X97502500Y-114020238D01*
X97426309Y-113982142D01*
X97388214Y-113905952D01*
X97388214Y-113867857D01*
X97426309Y-113791666D01*
X97502500Y-113753571D01*
X97616785Y-113753571D01*
X97692976Y-113791666D01*
X98188214Y-114286904D02*
X98112023Y-114248809D01*
X98073928Y-114210714D01*
X98035833Y-114134523D01*
X98035833Y-113905952D01*
X98073928Y-113829761D01*
X98112023Y-113791666D01*
X98188214Y-113753571D01*
X98302500Y-113753571D01*
X98378690Y-113791666D01*
X98416785Y-113829761D01*
X98454880Y-113905952D01*
X98454880Y-114134523D01*
X98416785Y-114210714D01*
X98378690Y-114248809D01*
X98302500Y-114286904D01*
X98188214Y-114286904D01*
X99140595Y-114248809D02*
X99064404Y-114286904D01*
X98912023Y-114286904D01*
X98835833Y-114248809D01*
X98797738Y-114210714D01*
X98759642Y-114134523D01*
X98759642Y-113905952D01*
X98797738Y-113829761D01*
X98835833Y-113791666D01*
X98912023Y-113753571D01*
X99064404Y-113753571D01*
X99140595Y-113791666D01*
X99483452Y-114286904D02*
X99483452Y-113486904D01*
X99559642Y-113982142D02*
X99788214Y-114286904D01*
X99788214Y-113753571D02*
X99483452Y-114058333D01*
X100435833Y-114248809D02*
X100359642Y-114286904D01*
X100207261Y-114286904D01*
X100131071Y-114248809D01*
X100092976Y-114172619D01*
X100092976Y-113867857D01*
X100131071Y-113791666D01*
X100207261Y-113753571D01*
X100359642Y-113753571D01*
X100435833Y-113791666D01*
X100473928Y-113867857D01*
X100473928Y-113944047D01*
X100092976Y-114020238D01*
X100702500Y-113753571D02*
X101007261Y-113753571D01*
X100816785Y-113486904D02*
X100816785Y-114172619D01*
X100854880Y-114248809D01*
X100931071Y-114286904D01*
X101007261Y-114286904D01*
X101883452Y-113753571D02*
X101883452Y-114553571D01*
X101883452Y-113791666D02*
X101959642Y-113753571D01*
X102112023Y-113753571D01*
X102188214Y-113791666D01*
X102226309Y-113829761D01*
X102264404Y-113905952D01*
X102264404Y-114134523D01*
X102226309Y-114210714D01*
X102188214Y-114248809D01*
X102112023Y-114286904D01*
X101959642Y-114286904D01*
X101883452Y-114248809D01*
X102607261Y-114286904D02*
X102607261Y-113753571D01*
X102607261Y-113486904D02*
X102569166Y-113525000D01*
X102607261Y-113563095D01*
X102645357Y-113525000D01*
X102607261Y-113486904D01*
X102607261Y-113563095D01*
X102988214Y-113753571D02*
X102988214Y-114286904D01*
X102988214Y-113829761D02*
X103026309Y-113791666D01*
X103102500Y-113753571D01*
X103216785Y-113753571D01*
X103292976Y-113791666D01*
X103331071Y-113867857D01*
X103331071Y-114286904D01*
X103712023Y-114210714D02*
X103750119Y-114248809D01*
X103712023Y-114286904D01*
X103673928Y-114248809D01*
X103712023Y-114210714D01*
X103712023Y-114286904D01*
X103712023Y-113982142D02*
X103673928Y-113525000D01*
X103712023Y-113486904D01*
X103750119Y-113525000D01*
X103712023Y-113982142D01*
X103712023Y-113486904D01*
D10*
%TO.C,C1*%
X94097918Y-133722000D02*
X94097918Y-134972000D01*
X93472918Y-134347000D02*
X94722918Y-134347000D01*
X106651000Y-137605000D02*
X106651000Y-138239000D01*
X106611000Y-137165000D02*
X106611000Y-138679000D01*
X106571000Y-136894000D02*
X106571000Y-138950000D01*
X106531000Y-136681000D02*
X106531000Y-139163000D01*
X106491000Y-136500000D02*
X106491000Y-139344000D01*
X106451000Y-136339000D02*
X106451000Y-139505000D01*
X106411000Y-136194000D02*
X106411000Y-139650000D01*
X106371000Y-136061000D02*
X106371000Y-139783000D01*
X106331000Y-135938000D02*
X106331000Y-139906000D01*
X106291000Y-135822000D02*
X106291000Y-140022000D01*
X106251000Y-135713000D02*
X106251000Y-140131000D01*
X106211000Y-135610000D02*
X106211000Y-140234000D01*
X106171000Y-135512000D02*
X106171000Y-140332000D01*
X106131000Y-135418000D02*
X106131000Y-140426000D01*
X106091000Y-135328000D02*
X106091000Y-140516000D01*
X106051000Y-135241000D02*
X106051000Y-140603000D01*
X106011000Y-135158000D02*
X106011000Y-140686000D01*
X105971000Y-135078000D02*
X105971000Y-140766000D01*
X105931000Y-135001000D02*
X105931000Y-140843000D01*
X105891000Y-134926000D02*
X105891000Y-140918000D01*
X105851000Y-134853000D02*
X105851000Y-140991000D01*
X105811000Y-134782000D02*
X105811000Y-141062000D01*
X105771000Y-134714000D02*
X105771000Y-141130000D01*
X105731000Y-134647000D02*
X105731000Y-141197000D01*
X105691000Y-134583000D02*
X105691000Y-141261000D01*
X105651000Y-134520000D02*
X105651000Y-141324000D01*
X105611000Y-134458000D02*
X105611000Y-141386000D01*
X105571000Y-134398000D02*
X105571000Y-141446000D01*
X105531000Y-134339000D02*
X105531000Y-141505000D01*
X105491000Y-134282000D02*
X105491000Y-141562000D01*
X105451000Y-134226000D02*
X105451000Y-141618000D01*
X105411000Y-134172000D02*
X105411000Y-141672000D01*
X105371000Y-134118000D02*
X105371000Y-141726000D01*
X105331000Y-134066000D02*
X105331000Y-141778000D01*
X105291000Y-134015000D02*
X105291000Y-141829000D01*
X105251000Y-133965000D02*
X105251000Y-141879000D01*
X105211000Y-133915000D02*
X105211000Y-141929000D01*
X105171000Y-133867000D02*
X105171000Y-141977000D01*
X105131000Y-133820000D02*
X105131000Y-142024000D01*
X105091000Y-133774000D02*
X105091000Y-142070000D01*
X105051000Y-133728000D02*
X105051000Y-142116000D01*
X105011000Y-133684000D02*
X105011000Y-142160000D01*
X104971000Y-133640000D02*
X104971000Y-142204000D01*
X104931000Y-133597000D02*
X104931000Y-142247000D01*
X104891000Y-133555000D02*
X104891000Y-142289000D01*
X104851000Y-133514000D02*
X104851000Y-142330000D01*
X104811000Y-133473000D02*
X104811000Y-142371000D01*
X104771000Y-133433000D02*
X104771000Y-142411000D01*
X104731000Y-133394000D02*
X104731000Y-142450000D01*
X104691000Y-133355000D02*
X104691000Y-142489000D01*
X104651000Y-133317000D02*
X104651000Y-142527000D01*
X104611000Y-133280000D02*
X104611000Y-142564000D01*
X104571000Y-133244000D02*
X104571000Y-142600000D01*
X104531000Y-133208000D02*
X104531000Y-142636000D01*
X104491000Y-133172000D02*
X104491000Y-142672000D01*
X104451000Y-133137000D02*
X104451000Y-142707000D01*
X104411000Y-133103000D02*
X104411000Y-142741000D01*
X104371000Y-133070000D02*
X104371000Y-142774000D01*
X104331000Y-133037000D02*
X104331000Y-142807000D01*
X104291000Y-133004000D02*
X104291000Y-142840000D01*
X104251000Y-132972000D02*
X104251000Y-142872000D01*
X104211000Y-139362000D02*
X104211000Y-142904000D01*
X104211000Y-132940000D02*
X104211000Y-136482000D01*
X104171000Y-139362000D02*
X104171000Y-142934000D01*
X104171000Y-132910000D02*
X104171000Y-136482000D01*
X104131000Y-139362000D02*
X104131000Y-142965000D01*
X104131000Y-132879000D02*
X104131000Y-136482000D01*
X104091000Y-139362000D02*
X104091000Y-142995000D01*
X104091000Y-132849000D02*
X104091000Y-136482000D01*
X104051000Y-139362000D02*
X104051000Y-143024000D01*
X104051000Y-132820000D02*
X104051000Y-136482000D01*
X104011000Y-139362000D02*
X104011000Y-143053000D01*
X104011000Y-132791000D02*
X104011000Y-136482000D01*
X103971000Y-139362000D02*
X103971000Y-143082000D01*
X103971000Y-132762000D02*
X103971000Y-136482000D01*
X103931000Y-139362000D02*
X103931000Y-143110000D01*
X103931000Y-132734000D02*
X103931000Y-136482000D01*
X103891000Y-139362000D02*
X103891000Y-143138000D01*
X103891000Y-132706000D02*
X103891000Y-136482000D01*
X103851000Y-139362000D02*
X103851000Y-143165000D01*
X103851000Y-132679000D02*
X103851000Y-136482000D01*
X103811000Y-139362000D02*
X103811000Y-143192000D01*
X103811000Y-132652000D02*
X103811000Y-136482000D01*
X103771000Y-139362000D02*
X103771000Y-143218000D01*
X103771000Y-132626000D02*
X103771000Y-136482000D01*
X103731000Y-139362000D02*
X103731000Y-143244000D01*
X103731000Y-132600000D02*
X103731000Y-136482000D01*
X103691000Y-139362000D02*
X103691000Y-143269000D01*
X103691000Y-132575000D02*
X103691000Y-136482000D01*
X103651000Y-139362000D02*
X103651000Y-143294000D01*
X103651000Y-132550000D02*
X103651000Y-136482000D01*
X103611000Y-139362000D02*
X103611000Y-143319000D01*
X103611000Y-132525000D02*
X103611000Y-136482000D01*
X103571000Y-139362000D02*
X103571000Y-143343000D01*
X103571000Y-132501000D02*
X103571000Y-136482000D01*
X103531000Y-139362000D02*
X103531000Y-143367000D01*
X103531000Y-132477000D02*
X103531000Y-136482000D01*
X103491000Y-139362000D02*
X103491000Y-143390000D01*
X103491000Y-132454000D02*
X103491000Y-136482000D01*
X103451000Y-139362000D02*
X103451000Y-143413000D01*
X103451000Y-132431000D02*
X103451000Y-136482000D01*
X103411000Y-139362000D02*
X103411000Y-143436000D01*
X103411000Y-132408000D02*
X103411000Y-136482000D01*
X103371000Y-139362000D02*
X103371000Y-143458000D01*
X103371000Y-132386000D02*
X103371000Y-136482000D01*
X103331000Y-139362000D02*
X103331000Y-143480000D01*
X103331000Y-132364000D02*
X103331000Y-136482000D01*
X103291000Y-139362000D02*
X103291000Y-143502000D01*
X103291000Y-132342000D02*
X103291000Y-136482000D01*
X103251000Y-139362000D02*
X103251000Y-143523000D01*
X103251000Y-132321000D02*
X103251000Y-136482000D01*
X103211000Y-139362000D02*
X103211000Y-143544000D01*
X103211000Y-132300000D02*
X103211000Y-136482000D01*
X103171000Y-139362000D02*
X103171000Y-143564000D01*
X103171000Y-132280000D02*
X103171000Y-136482000D01*
X103131000Y-139362000D02*
X103131000Y-143584000D01*
X103131000Y-132260000D02*
X103131000Y-136482000D01*
X103091000Y-139362000D02*
X103091000Y-143604000D01*
X103091000Y-132240000D02*
X103091000Y-136482000D01*
X103051000Y-139362000D02*
X103051000Y-143624000D01*
X103051000Y-132220000D02*
X103051000Y-136482000D01*
X103011000Y-139362000D02*
X103011000Y-143643000D01*
X103011000Y-132201000D02*
X103011000Y-136482000D01*
X102971000Y-139362000D02*
X102971000Y-143661000D01*
X102971000Y-132183000D02*
X102971000Y-136482000D01*
X102931000Y-139362000D02*
X102931000Y-143680000D01*
X102931000Y-132164000D02*
X102931000Y-136482000D01*
X102891000Y-139362000D02*
X102891000Y-143698000D01*
X102891000Y-132146000D02*
X102891000Y-136482000D01*
X102851000Y-139362000D02*
X102851000Y-143715000D01*
X102851000Y-132129000D02*
X102851000Y-136482000D01*
X102811000Y-139362000D02*
X102811000Y-143733000D01*
X102811000Y-132111000D02*
X102811000Y-136482000D01*
X102771000Y-139362000D02*
X102771000Y-143750000D01*
X102771000Y-132094000D02*
X102771000Y-136482000D01*
X102731000Y-139362000D02*
X102731000Y-143767000D01*
X102731000Y-132077000D02*
X102731000Y-136482000D01*
X102691000Y-139362000D02*
X102691000Y-143783000D01*
X102691000Y-132061000D02*
X102691000Y-136482000D01*
X102651000Y-139362000D02*
X102651000Y-143799000D01*
X102651000Y-132045000D02*
X102651000Y-136482000D01*
X102611000Y-139362000D02*
X102611000Y-143815000D01*
X102611000Y-132029000D02*
X102611000Y-136482000D01*
X102571000Y-139362000D02*
X102571000Y-143830000D01*
X102571000Y-132014000D02*
X102571000Y-136482000D01*
X102531000Y-139362000D02*
X102531000Y-143846000D01*
X102531000Y-131998000D02*
X102531000Y-136482000D01*
X102491000Y-139362000D02*
X102491000Y-143861000D01*
X102491000Y-131983000D02*
X102491000Y-136482000D01*
X102451000Y-139362000D02*
X102451000Y-143875000D01*
X102451000Y-131969000D02*
X102451000Y-136482000D01*
X102411000Y-139362000D02*
X102411000Y-143889000D01*
X102411000Y-131955000D02*
X102411000Y-136482000D01*
X102371000Y-139362000D02*
X102371000Y-143903000D01*
X102371000Y-131941000D02*
X102371000Y-136482000D01*
X102331000Y-139362000D02*
X102331000Y-143917000D01*
X102331000Y-131927000D02*
X102331000Y-136482000D01*
X102291000Y-139362000D02*
X102291000Y-143930000D01*
X102291000Y-131914000D02*
X102291000Y-136482000D01*
X102251000Y-139362000D02*
X102251000Y-143943000D01*
X102251000Y-131901000D02*
X102251000Y-136482000D01*
X102211000Y-139362000D02*
X102211000Y-143956000D01*
X102211000Y-131888000D02*
X102211000Y-136482000D01*
X102171000Y-139362000D02*
X102171000Y-143969000D01*
X102171000Y-131875000D02*
X102171000Y-136482000D01*
X102131000Y-139362000D02*
X102131000Y-143981000D01*
X102131000Y-131863000D02*
X102131000Y-136482000D01*
X102091000Y-139362000D02*
X102091000Y-143993000D01*
X102091000Y-131851000D02*
X102091000Y-136482000D01*
X102051000Y-139362000D02*
X102051000Y-144005000D01*
X102051000Y-131839000D02*
X102051000Y-136482000D01*
X102011000Y-139362000D02*
X102011000Y-144016000D01*
X102011000Y-131828000D02*
X102011000Y-136482000D01*
X101971000Y-139362000D02*
X101971000Y-144027000D01*
X101971000Y-131817000D02*
X101971000Y-136482000D01*
X101931000Y-139362000D02*
X101931000Y-144038000D01*
X101931000Y-131806000D02*
X101931000Y-136482000D01*
X101891000Y-139362000D02*
X101891000Y-144048000D01*
X101891000Y-131796000D02*
X101891000Y-136482000D01*
X101851000Y-139362000D02*
X101851000Y-144059000D01*
X101851000Y-131785000D02*
X101851000Y-136482000D01*
X101811000Y-139362000D02*
X101811000Y-144068000D01*
X101811000Y-131776000D02*
X101811000Y-136482000D01*
X101771000Y-139362000D02*
X101771000Y-144078000D01*
X101771000Y-131766000D02*
X101771000Y-136482000D01*
X101731000Y-139362000D02*
X101731000Y-144088000D01*
X101731000Y-131756000D02*
X101731000Y-136482000D01*
X101691000Y-139362000D02*
X101691000Y-144097000D01*
X101691000Y-131747000D02*
X101691000Y-136482000D01*
X101651000Y-139362000D02*
X101651000Y-144106000D01*
X101651000Y-131738000D02*
X101651000Y-136482000D01*
X101611000Y-139362000D02*
X101611000Y-144114000D01*
X101611000Y-131730000D02*
X101611000Y-136482000D01*
X101571000Y-139362000D02*
X101571000Y-144123000D01*
X101571000Y-131721000D02*
X101571000Y-136482000D01*
X101531000Y-139362000D02*
X101531000Y-144131000D01*
X101531000Y-131713000D02*
X101531000Y-136482000D01*
X101491000Y-139362000D02*
X101491000Y-144138000D01*
X101491000Y-131706000D02*
X101491000Y-136482000D01*
X101451000Y-139362000D02*
X101451000Y-144146000D01*
X101451000Y-131698000D02*
X101451000Y-136482000D01*
X101411000Y-139362000D02*
X101411000Y-144153000D01*
X101411000Y-131691000D02*
X101411000Y-136482000D01*
X101371000Y-139362000D02*
X101371000Y-144160000D01*
X101371000Y-131684000D02*
X101371000Y-136482000D01*
X101331000Y-131677000D02*
X101331000Y-144167000D01*
X101291000Y-131670000D02*
X101291000Y-144174000D01*
X101251000Y-131664000D02*
X101251000Y-144180000D01*
X101211000Y-131658000D02*
X101211000Y-144186000D01*
X101171000Y-131653000D02*
X101171000Y-144191000D01*
X101131000Y-131647000D02*
X101131000Y-144197000D01*
X101091000Y-131642000D02*
X101091000Y-144202000D01*
X101051000Y-131637000D02*
X101051000Y-144207000D01*
X101011000Y-131632000D02*
X101011000Y-144212000D01*
X100970000Y-131628000D02*
X100970000Y-144216000D01*
X100930000Y-131624000D02*
X100930000Y-144220000D01*
X100890000Y-131620000D02*
X100890000Y-144224000D01*
X100850000Y-131616000D02*
X100850000Y-144228000D01*
X100810000Y-131613000D02*
X100810000Y-144231000D01*
X100770000Y-131610000D02*
X100770000Y-144234000D01*
X100730000Y-131607000D02*
X100730000Y-144237000D01*
X100690000Y-131604000D02*
X100690000Y-144240000D01*
X100650000Y-131602000D02*
X100650000Y-144242000D01*
X100610000Y-131600000D02*
X100610000Y-144244000D01*
X100570000Y-131598000D02*
X100570000Y-144246000D01*
X100530000Y-131596000D02*
X100530000Y-144248000D01*
X100490000Y-131595000D02*
X100490000Y-144249000D01*
X100450000Y-131594000D02*
X100450000Y-144250000D01*
X100410000Y-131593000D02*
X100410000Y-144251000D01*
X100370000Y-131592000D02*
X100370000Y-144252000D01*
X100330000Y-131592000D02*
X100330000Y-144252000D01*
X100290000Y-131592000D02*
X100290000Y-144252000D01*
X106660000Y-137922000D02*
G75*
G03*
X106660000Y-137922000I-6370000J0D01*
G01*
%TO.C,J1*%
X94950000Y-156792000D02*
X95450000Y-156792000D01*
X94950000Y-156052000D02*
X94950000Y-156792000D01*
X101643000Y-152915000D02*
X101596000Y-152961000D01*
X103940000Y-150617000D02*
X103905000Y-150653000D01*
X101836000Y-153131000D02*
X101801000Y-153166000D01*
X104145000Y-150823000D02*
X104098000Y-150869000D01*
X105470000Y-146631000D02*
X105470000Y-156552000D01*
X95190000Y-146631000D02*
X95190000Y-156552000D01*
X95190000Y-156552000D02*
X105470000Y-156552000D01*
X95190000Y-146631000D02*
X105470000Y-146631000D01*
X95190000Y-149591000D02*
X105470000Y-149591000D01*
X95190000Y-154492000D02*
X105470000Y-154492000D01*
X95190000Y-155992000D02*
X105470000Y-155992000D01*
X104550000Y-151892000D02*
G75*
G03*
X104550000Y-151892000I-1680000J0D01*
G01*
X98473318Y-153426756D02*
G75*
G02*
X97790000Y-153572000I-683318J1534756D01*
G01*
X99325426Y-151208958D02*
G75*
G02*
X99325000Y-152576000I-1535426J-683042D01*
G01*
X97106958Y-150356574D02*
G75*
G02*
X98474000Y-150357000I683042J-1535426D01*
G01*
X96254574Y-152575042D02*
G75*
G02*
X96255000Y-151208000I1535426J683042D01*
G01*
X97818805Y-153572253D02*
G75*
G02*
X97106000Y-153427000I-28805J1680253D01*
G01*
%TO.C,J2*%
X93805000Y-128924999D02*
X92475000Y-128924999D01*
X92475000Y-128924999D02*
X92475000Y-127594999D01*
X92475000Y-126324999D02*
X92475000Y-108484999D01*
X95135000Y-108484999D02*
X92475000Y-108484999D01*
X95135000Y-126324999D02*
X95135000Y-108484999D01*
X95135000Y-126324999D02*
X92475000Y-126324999D01*
%TO.C,J3*%
X107832999Y-126324999D02*
X105172999Y-126324999D01*
X107832999Y-126324999D02*
X107832999Y-108484999D01*
X107832999Y-108484999D02*
X105172999Y-108484999D01*
X105172999Y-126324999D02*
X105172999Y-108484999D01*
X105172999Y-128924999D02*
X105172999Y-127594999D01*
X106502999Y-128924999D02*
X105172999Y-128924999D01*
%TO.C,J4*%
X95015000Y-109814999D02*
X95015000Y-108484999D01*
X95015000Y-108484999D02*
X96345000Y-108484999D01*
X97615000Y-108484999D02*
X100215000Y-108484999D01*
X100215000Y-111144999D02*
X100215000Y-108484999D01*
X97615000Y-111144999D02*
X100215000Y-111144999D01*
X97615000Y-111144999D02*
X97615000Y-108484999D01*
%TO.C,D1*%
X100511000Y-125003000D02*
X103451000Y-125003000D01*
X100511000Y-124763000D02*
X103451000Y-124763000D01*
X100511000Y-124883000D02*
X103451000Y-124883000D01*
X101981000Y-119323000D02*
X101981000Y-120343000D01*
X101981000Y-126803000D02*
X101981000Y-125783000D01*
X100511000Y-120343000D02*
X100511000Y-125783000D01*
X103451000Y-120343000D02*
X100511000Y-120343000D01*
X103451000Y-125783000D02*
X103451000Y-120343000D01*
X100511000Y-125783000D02*
X103451000Y-125783000D01*
%TO.C,C1*%
D11*
X100123333Y-130779142D02*
X100075714Y-130826761D01*
X99932857Y-130874380D01*
X99837619Y-130874380D01*
X99694761Y-130826761D01*
X99599523Y-130731523D01*
X99551904Y-130636285D01*
X99504285Y-130445809D01*
X99504285Y-130302952D01*
X99551904Y-130112476D01*
X99599523Y-130017238D01*
X99694761Y-129922000D01*
X99837619Y-129874380D01*
X99932857Y-129874380D01*
X100075714Y-129922000D01*
X100123333Y-129969619D01*
X101075714Y-130874380D02*
X100504285Y-130874380D01*
X100790000Y-130874380D02*
X100790000Y-129874380D01*
X100694761Y-130017238D01*
X100599523Y-130112476D01*
X100504285Y-130160095D01*
%TO.C,J1*%
X99996666Y-145084380D02*
X99996666Y-145798666D01*
X99949047Y-145941523D01*
X99853809Y-146036761D01*
X99710952Y-146084380D01*
X99615714Y-146084380D01*
X100996666Y-146084380D02*
X100425238Y-146084380D01*
X100710952Y-146084380D02*
X100710952Y-145084380D01*
X100615714Y-145227238D01*
X100520476Y-145322476D01*
X100425238Y-145370095D01*
%TO.C,J2*%
X93471666Y-129817379D02*
X93471666Y-130531665D01*
X93424047Y-130674522D01*
X93328809Y-130769760D01*
X93185952Y-130817379D01*
X93090714Y-130817379D01*
X93900238Y-129912618D02*
X93947857Y-129864999D01*
X94043095Y-129817379D01*
X94281190Y-129817379D01*
X94376428Y-129864999D01*
X94424047Y-129912618D01*
X94471666Y-130007856D01*
X94471666Y-130103094D01*
X94424047Y-130245951D01*
X93852619Y-130817379D01*
X94471666Y-130817379D01*
%TO.C,J3*%
X106169665Y-129817379D02*
X106169665Y-130531665D01*
X106122046Y-130674522D01*
X106026808Y-130769760D01*
X105883951Y-130817379D01*
X105788713Y-130817379D01*
X106550618Y-129817379D02*
X107169665Y-129817379D01*
X106836332Y-130198332D01*
X106979189Y-130198332D01*
X107074427Y-130245951D01*
X107122046Y-130293570D01*
X107169665Y-130388808D01*
X107169665Y-130626903D01*
X107122046Y-130722141D01*
X107074427Y-130769760D01*
X106979189Y-130817379D01*
X106693475Y-130817379D01*
X106598237Y-130769760D01*
X106550618Y-130722141D01*
%TO.C,J4*%
X93027380Y-110148332D02*
X93741666Y-110148332D01*
X93884523Y-110195951D01*
X93979761Y-110291189D01*
X94027380Y-110434046D01*
X94027380Y-110529284D01*
X93360714Y-109243570D02*
X94027380Y-109243570D01*
X92979761Y-109481665D02*
X93694047Y-109719760D01*
X93694047Y-109100713D01*
%TO.C,D1*%
X99963380Y-123801095D02*
X98963380Y-123801095D01*
X98963380Y-123563000D01*
X99011000Y-123420142D01*
X99106238Y-123324904D01*
X99201476Y-123277285D01*
X99391952Y-123229666D01*
X99534809Y-123229666D01*
X99725285Y-123277285D01*
X99820523Y-123324904D01*
X99915761Y-123420142D01*
X99963380Y-123563000D01*
X99963380Y-123801095D01*
X99963380Y-122277285D02*
X99963380Y-122848714D01*
X99963380Y-122563000D02*
X98963380Y-122563000D01*
X99106238Y-122658238D01*
X99201476Y-122753476D01*
X99249095Y-122848714D01*
X100333380Y-128404904D02*
X99333380Y-128404904D01*
X100333380Y-127833476D02*
X99761952Y-128262047D01*
X99333380Y-127833476D02*
X99904809Y-128404904D01*
%TD*%
%LPC*%
D12*
%TO.C,C1*%
X97790000Y-137922000D03*
D13*
X102790000Y-137922000D03*
%TD*%
D14*
%TO.C,J1*%
X97790000Y-151892000D03*
D15*
X102870000Y-151892000D03*
%TD*%
D16*
%TO.C,J2*%
X93805000Y-127594999D03*
D17*
X93805000Y-125054999D03*
X93805000Y-122514999D03*
X93805000Y-119974999D03*
X93805000Y-117434999D03*
X93805000Y-114894999D03*
X93805000Y-112354999D03*
X93805000Y-109814999D03*
%TD*%
%TO.C,J3*%
X106502999Y-109814999D03*
X106502999Y-112354999D03*
X106502999Y-114894999D03*
X106502999Y-117434999D03*
X106502999Y-119974999D03*
X106502999Y-122514999D03*
X106502999Y-125054999D03*
D16*
X106502999Y-127594999D03*
%TD*%
D18*
%TO.C,J4*%
X96345000Y-109814999D03*
D17*
X98885000Y-109814999D03*
%TD*%
D19*
%TO.C,D1*%
X101981000Y-128143000D03*
D20*
X101981000Y-117983000D03*
%TD*%
M02*
